<svg id="Layer_1" data-name="Layer 1" xmlns="http://www.w3.org/2000/svg" viewBox="0 0 184.925 36.879"><defs><style>.cls-1{fill:#f8f8f2;}</style></defs><title>rtjhntyhn</title><path class="cls-1" d="M5430.984,1938.763a7.814,7.814,0,0,0-6.768-3.1c-5.871,0-10.208,4.561-10.208,10.695,0,6.394,4.263,10.993,10.171,10.993a8.084,8.084,0,0,0,6.806-3.217c-0.187,4.45-2.094,6.619-5.8,6.619a6.188,6.188,0,0,1-5.2-2.206h-5.647c1.683,4.151,5.571,6.581,10.657,6.581,6.432,0,10.732-3.291,10.732-12.19v-16.79h-4.749v2.618Zm-6.132,14.022c-3.553,0-5.834-2.431-5.834-6.207,0-3.814,2.281-6.357,5.758-6.357,3.552,0,5.983,2.581,5.983,6.357C5430.76,1950.318,5428.4,1952.785,5424.852,1952.785Z" transform="translate(-5414.008 -1928.246)"/><path class="cls-1" d="M5450.963,1945.9c0,2.767-.224,4.04-0.785,4.974a4.276,4.276,0,0,1-3.777,1.907c-2.393,0-3.926-1.009-3.926-6.507v-10.133H5437.5v11.106c0,7.292,3.066,10.1,7.89,10.1a7.5,7.5,0,0,0,5.945-2.468v1.982h4.6v-20.716h-4.973v9.759Z" transform="translate(-5414.008 -1928.246)"/><rect class="cls-1" x="43.697" y="7.899" width="4.974" height="20.716"/><path class="cls-1" d="M5495.774,1938.913a7.7,7.7,0,0,0-6.768-3.253c-6.132,0-10.545,4.6-10.545,10.919,0,6.245,4.375,10.769,10.433,10.769a8.337,8.337,0,0,0,6.88-3.178v2.693h4.562v-20.716h-4.562v2.767Zm-6.17,13.873a5.82,5.82,0,0,1-6.133-6.1c0-3.777,2.505-6.469,6.058-6.469s6.095,2.655,6.095,6.432A5.778,5.778,0,0,1,5489.6,1952.785Z" transform="translate(-5414.008 -1928.246)"/><path class="cls-1" d="M5506.667,1938.164v-2.019h-4.561v20.716h4.973v-11.518c0-3.216,1.459-4.823,4.45-4.9v-4.786h-0.374C5509.023,1935.659,5507.976,1936.258,5506.667,1938.164Z" transform="translate(-5414.008 -1928.246)"/><path class="cls-1" d="M5541.6,1945.9c0,2.768-.224,4.039-0.785,4.974a4.276,4.276,0,0,1-3.777,1.907c-2.393,0-3.926-1.009-3.926-6.506v-10.134h-4.974v11.106c0,7.291,3.067,10.1,7.891,10.1a7.5,7.5,0,0,0,5.945-2.468v1.982h4.6v-20.716H5541.6v9.759Z" transform="translate(-5414.008 -1928.246)"/><circle class="cls-1" cx="46.203" cy="3.202" r="3.202"/><polygon class="cls-1" points="64.454 7.899 62.931 7.899 59.939 7.899 59.939 0.981 54.966 0.981 54.966 7.899 52.536 7.899 50.452 7.899 50.452 12.424 52.536 12.424 54.966 12.424 54.966 28.615 59.939 28.615 59.939 12.424 62.931 12.424 64.454 12.424 64.454 7.899"/><polygon class="cls-1" points="108.336 7.899 108.336 0.981 103.362 0.981 103.362 7.899 100.932 7.899 98.848 7.899 98.848 12.424 100.932 12.424 103.362 12.424 103.362 28.615 108.336 28.615 108.336 12.424 111.327 12.424 112.85 12.424 112.85 7.899 111.327 7.899 108.336 7.899"/><path class="cls-1" d="M5558.773,1935.659a7.678,7.678,0,0,0-5.834,2.467v-1.981h-4.6v20.716h4.973v-9.76c0-2.767.187-3.964,0.823-4.974a4.177,4.177,0,0,1,3.666-1.907c2.467,0,3.963.973,3.963,6.507v10.134h1.555a24.082,24.082,0,0,1,3.418-6.116v-4.99c0-3.7-.373-5.5-1.495-7.1A7.461,7.461,0,0,0,5558.773,1935.659Z" transform="translate(-5414.008 -1928.246)"/><path class="cls-1" d="M5585.276,1938.912a7.7,7.7,0,0,0-6.768-3.253c-6.132,0-10.545,4.6-10.545,10.919a12.489,12.489,0,0,0,.233,2.416,27.5,27.5,0,0,1,6.893-5.555v0.01a37.664,37.664,0,0,1,9.693-3.136,1.426,1.426,0,0,1,1.865,1.225c0.178,1.494-8.5,6.759-7.734,15.8a8.279,8.279,0,0,0,6.363-3.168v2.693h4.562v-20.716h-4.562v2.767Z" transform="translate(-5414.008 -1928.246)"/><polygon class="cls-1" points="177.182 8.697 178.017 8.697 178.017 12.402 178.852 12.402 178.852 8.697 179.687 8.697 179.687 7.899 177.182 7.899 177.182 8.697"/><polygon class="cls-1" points="183.779 7.899 182.579 11.312 181.366 7.899 180.22 7.899 180.22 12.402 181.055 12.402 181.055 9.026 182.231 12.402 182.914 12.402 184.09 9.026 184.09 12.402 184.925 12.402 184.925 7.899 183.779 7.899"/></svg>