<?xml version="1.0" encoding="utf-8"?>
<!-- Generator: Adobe Illustrator 19.2.1, SVG Export Plug-In . SVG Version: 6.00 Build 0)  -->
<svg version="1.1" id="Слой_1" xmlns="http://www.w3.org/2000/svg" xmlns:xlink="http://www.w3.org/1999/xlink" x="0px" y="0px"
	 viewBox="0 0 16 16" style="enable-background:new 0 0 16 16;" xml:space="preserve">
<path id="instagram_copy" d="M12.9,16H3.1C1.4,16,0,14.6,0,12.9c0,0,0,0,0,0V3.1C0,1.4,1.4,0,3.1,0h9.8C14.6,0,16,1.4,16,3.1v9.8
	C16,14.6,14.6,16,12.9,16z M8,6C6.9,6,6,6.9,6,8s0.9,2,2,2s2-0.9,2-2C10,6.9,9.1,6,8,6z M8,12c-2.2,0-4-1.8-4-4c0-0.7,0.2-1.4,0.5-2
	H2v6.5C2,13.3,2.7,14,3.5,14h8.9c0.9,0,1.5-0.7,1.5-1.5V6h-2.6c1.1,1.9,0.5,4.3-1.4,5.4C9.4,11.8,8.7,12,8,12z M14,2.3V2h-0.3L12,2
	l0,2l2,0V2.3z"/>
</svg>
