<svg xmlns="http://www.w3.org/2000/svg" width="16" height="13" viewBox="0 0 16 13">
  <defs>
    <style>
      .cls-1 {
        fill: #fff;
        fill-rule: evenodd;
      }
    </style>
  </defs>
  <path id="twitter_copy" data-name="twitter copy" class="cls-1" d="M1114,2446.54a6.636,6.636,0,0,1-1.88.52,3.352,3.352,0,0,0,1.44-1.82,6.561,6.561,0,0,1-2.08.8,3.283,3.283,0,0,0-5.68,2.24,3.08,3.08,0,0,0,.08.75,9.323,9.323,0,0,1-6.77-3.43,3.307,3.307,0,0,0-.44,1.65,3.266,3.266,0,0,0,1.46,2.73,3.134,3.134,0,0,1-1.49-.41v0.04a3.284,3.284,0,0,0,2.63,3.22,3.433,3.433,0,0,1-.86.12,4.2,4.2,0,0,1-.62-0.06,3.277,3.277,0,0,0,3.07,2.27,6.612,6.612,0,0,1-4.08,1.41,6.807,6.807,0,0,1-.78-0.05,9.328,9.328,0,0,0,14.37-7.85c0-.15,0-0.29-0.01-0.43A6.468,6.468,0,0,0,1114,2446.54Z" transform="translate(-1098 -2445)"/>
</svg>
