<svg id="Layer_1" data-name="Layer 1" xmlns="http://www.w3.org/2000/svg" viewBox="0 0 257.649 76.341"><defs><style>.cls-1{fill:#a6a6a6;}.cls-2{fill:#fff;}</style></defs><title>app_store</title><path class="cls-1" d="M2435.645,859.353H2196.187a9.046,9.046,0,0,1-9.025-9.033V792.032a9.033,9.033,0,0,1,9.025-9.02h239.458a9.156,9.156,0,0,1,9.167,9.02V850.32a9.169,9.169,0,0,1-9.167,9.033h0Z" transform="translate(-2187.162 -783.012)"/><path d="M2442.964,850.321a7.309,7.309,0,0,1-7.317,7.31H2196.187a7.319,7.319,0,0,1-7.327-7.31V792.03a7.328,7.328,0,0,1,7.327-7.319h239.458a7.318,7.318,0,0,1,7.317,7.319l0,58.292h0Z" transform="translate(-2187.162 -783.012)"/><path class="cls-2" d="M2244.661,820.77a11.063,11.063,0,0,1,5.269-9.283,11.331,11.331,0,0,0-8.924-4.825c-3.754-.4-7.4,2.246-9.308,2.246-1.951,0-4.9-2.208-8.069-2.143a11.881,11.881,0,0,0-10,6.1c-4.325,7.487-1.1,18.49,3.044,24.542,2.073,2.964,4.495,6.273,7.665,6.157,3.1-.128,4.26-1.977,8-1.977,3.708,0,4.8,1.977,8.029,1.9,3.328-.053,5.424-2.977,7.424-5.968a24.491,24.491,0,0,0,3.4-6.915A10.7,10.7,0,0,1,2244.661,820.77Z" transform="translate(-2187.162 -783.012)"/><path class="cls-2" d="M2238.554,802.681a10.889,10.889,0,0,0,2.493-7.8,11.093,11.093,0,0,0-7.172,3.71,10.363,10.363,0,0,0-2.557,7.516A9.162,9.162,0,0,0,2238.554,802.681Z" transform="translate(-2187.162 -783.012)"/><path class="cls-2" d="M2289.544,843.138h-4.334l-2.374-7.46h-8.252l-2.262,7.46h-4.22l8.176-25.4h5.05Zm-7.424-10.59-2.147-6.632q-0.341-1.016-1.281-4.785h-0.076q-0.375,1.62-1.206,4.785l-2.109,6.632h6.819Z" transform="translate(-2187.162 -783.012)"/><path class="cls-2" d="M2310.57,833.756a10.407,10.407,0,0,1-2.525,7.384,7.383,7.383,0,0,1-5.615,2.412,5.615,5.615,0,0,1-5.2-2.6h-0.076V850.6h-4.069V830.853q0-2.937-.151-6.029h3.578l0.227,2.9h0.076a7.24,7.24,0,0,1,11.587-.718A10.09,10.09,0,0,1,2310.57,833.756Zm-4.145.149a7.54,7.54,0,0,0-1.206-4.409,4.166,4.166,0,0,0-3.542-1.809,4.231,4.231,0,0,0-2.731,1,4.63,4.63,0,0,0-1.6,2.62,5.327,5.327,0,0,0-.189,1.241V835.6a4.893,4.893,0,0,0,1.225,3.374,4.061,4.061,0,0,0,3.183,1.376,4.166,4.166,0,0,0,3.578-1.771A7.8,7.8,0,0,0,2306.425,833.9Z" transform="translate(-2187.162 -783.012)"/><path class="cls-2" d="M2331.634,833.756a10.4,10.4,0,0,1-2.527,7.384,7.376,7.376,0,0,1-5.613,2.412,5.609,5.609,0,0,1-5.2-2.6h-0.076V850.6h-4.069V830.853q0-2.937-.151-6.029h3.578l0.227,2.9h0.076a7.242,7.242,0,0,1,11.588-.718A10.118,10.118,0,0,1,2331.634,833.756Zm-4.145.149a7.54,7.54,0,0,0-1.208-4.409,4.16,4.16,0,0,0-3.54-1.809,4.236,4.236,0,0,0-2.733,1,4.627,4.627,0,0,0-1.6,2.62,5.432,5.432,0,0,0-.189,1.241V835.6a4.908,4.908,0,0,0,1.221,3.374,4.07,4.07,0,0,0,3.187,1.376,4.166,4.166,0,0,0,3.578-1.771A7.8,7.8,0,0,0,2327.489,833.9Z" transform="translate(-2187.162 -783.012)"/><path class="cls-2" d="M2355.185,836.015a6.769,6.769,0,0,1-2.256,5.275,10,10,0,0,1-6.918,2.223,12.11,12.11,0,0,1-6.582-1.582l0.943-3.391a11.154,11.154,0,0,0,5.882,1.622,5.561,5.561,0,0,0,3.582-1.038,3.39,3.39,0,0,0,1.279-2.775,3.538,3.538,0,0,0-1.055-2.6,9.811,9.811,0,0,0-3.5-1.964q-6.67-2.488-6.668-7.283a6.444,6.444,0,0,1,2.338-5.132,9.217,9.217,0,0,1,6.218-2,12.327,12.327,0,0,1,5.764,1.206l-1.017,3.317a10,10,0,0,0-4.861-1.168,4.92,4.92,0,0,0-3.351,1.055,3.016,3.016,0,0,0-1.017,2.3,3.1,3.1,0,0,0,1.166,2.487,13.179,13.179,0,0,0,3.695,1.96,12.536,12.536,0,0,1,4.823,3.088A6.451,6.451,0,0,1,2355.185,836.015Z" transform="translate(-2187.162 -783.012)"/><path class="cls-2" d="M2368.639,827.877h-4.485v8.892q0,3.392,2.374,3.391a7.237,7.237,0,0,0,1.807-.189l0.113,3.09a9.219,9.219,0,0,1-3.164.45,4.882,4.882,0,0,1-3.769-1.47q-1.354-1.471-1.357-4.937v-9.231h-2.672V824.82h2.672v-3.353l4-1.206v4.559h4.485v3.057Z" transform="translate(-2187.162 -783.012)"/><path class="cls-2" d="M2388.875,833.83a10.046,10.046,0,0,1-2.412,6.934,8.613,8.613,0,0,1-6.71,2.788,8.19,8.19,0,0,1-6.422-2.674,9.738,9.738,0,0,1-2.393-6.745,9.948,9.948,0,0,1,2.468-6.97,8.54,8.54,0,0,1,6.649-2.714,8.364,8.364,0,0,1,6.481,2.676A9.627,9.627,0,0,1,2388.875,833.83Zm-4.222.132a8.238,8.238,0,0,0-1.092-4.346,4.019,4.019,0,0,0-3.653-2.191,4.08,4.08,0,0,0-3.731,2.191,8.4,8.4,0,0,0-1.092,4.422,8.226,8.226,0,0,0,1.092,4.344,4.159,4.159,0,0,0,7.348-.038A8.267,8.267,0,0,0,2384.653,833.962Z" transform="translate(-2187.162 -783.012)"/><path class="cls-2" d="M2402.1,828.4a7.065,7.065,0,0,0-1.283-.113,3.845,3.845,0,0,0-3.317,1.622,6.1,6.1,0,0,0-1.017,3.617v9.609h-4.067l0.038-12.547q0-3.166-.153-5.766h3.544l0.149,3.5h0.113a6.263,6.263,0,0,1,2.034-2.9,4.92,4.92,0,0,1,2.941-.981,6.533,6.533,0,0,1,1.017.074v3.88Z" transform="translate(-2187.162 -783.012)"/><path class="cls-2" d="M2420.3,833.114a9.543,9.543,0,0,1-.149,1.846h-12.207a5.313,5.313,0,0,0,1.771,4.147,6.047,6.047,0,0,0,3.993,1.281,13.5,13.5,0,0,0,4.939-.866l0.637,2.825a15.27,15.27,0,0,1-6.14,1.132,8.894,8.894,0,0,1-6.691-2.506,9.255,9.255,0,0,1-2.43-6.726,10.492,10.492,0,0,1,2.263-6.9,7.8,7.8,0,0,1,6.4-2.937,6.825,6.825,0,0,1,5.995,2.937A9.9,9.9,0,0,1,2420.3,833.114Zm-3.88-1.055a5.528,5.528,0,0,0-.79-3.128,3.554,3.554,0,0,0-3.243-1.7,3.86,3.86,0,0,0-3.239,1.658,6.072,6.072,0,0,0-1.2,3.164h8.476v0Z" transform="translate(-2187.162 -783.012)"/><path class="cls-2" d="M2280.774,802.114a6.265,6.265,0,0,1-2.019,5.073,8.031,8.031,0,0,1-5.311,1.573,24.626,24.626,0,0,1-2.926-.149V796.337a21.59,21.59,0,0,1,3.445-.26,7.426,7.426,0,0,1,4.943,1.426A5.761,5.761,0,0,1,2280.774,802.114Zm-2.109.055a4.066,4.066,0,0,0-4.537-4.517,8.465,8.465,0,0,0-1.611.13v9.331a10.56,10.56,0,0,0,1.351.055,4.731,4.731,0,0,0,3.544-1.277A5.113,5.113,0,0,0,2278.665,802.17Z" transform="translate(-2187.162 -783.012)"/><path class="cls-2" d="M2291.956,804.076a4.935,4.935,0,0,1-1.185,3.407,4.23,4.23,0,0,1-3.3,1.37,4.021,4.021,0,0,1-3.157-1.315,4.789,4.789,0,0,1-1.174-3.313,4.887,4.887,0,0,1,1.212-3.424,4.2,4.2,0,0,1,3.267-1.332,4.115,4.115,0,0,1,3.185,1.313A4.75,4.75,0,0,1,2291.956,804.076Zm-2.075.065a4.069,4.069,0,0,0-.536-2.136,1.975,1.975,0,0,0-1.794-1.076,2.006,2.006,0,0,0-1.834,1.076,4.123,4.123,0,0,0-.536,2.172,4.069,4.069,0,0,0,.536,2.136,2.019,2.019,0,0,0,1.815,1.076,2,2,0,0,0,1.794-1.1A4.043,4.043,0,0,0,2289.882,804.141Z" transform="translate(-2187.162 -783.012)"/><path class="cls-2" d="M2306.95,799.652l-2.815,9H2302.3l-1.166-3.907a29.242,29.242,0,0,1-.723-2.907h-0.036a21.279,21.279,0,0,1-.723,2.907l-1.239,3.907h-1.853l-2.647-9h2.055l1.017,4.277q0.369,1.517.611,2.888h0.036q0.223-1.128.742-2.868l1.277-4.294h1.63l1.223,4.2q0.444,1.537.721,2.962h0.055a28.3,28.3,0,0,1,.611-2.962l1.092-4.2h1.964v0Z" transform="translate(-2187.162 -783.012)"/><path class="cls-2" d="M2317.319,808.649h-2V803.5q0-2.382-1.813-2.382a1.8,1.8,0,0,0-1.445.655,2.323,2.323,0,0,0-.555,1.542v5.336h-2v-6.424q0-1.185-.073-2.575h1.758l0.094,1.407h0.055a2.89,2.89,0,0,1,1.036-1.086,3.38,3.38,0,0,1,1.813-.506,2.871,2.871,0,0,1,2.094.815,3.96,3.96,0,0,1,1.036,2.981v5.39Z" transform="translate(-2187.162 -783.012)"/><path class="cls-2" d="M2322.834,808.649h-2V795.524h2v13.125Z" transform="translate(-2187.162 -783.012)"/><path class="cls-2" d="M2334.61,804.076a4.935,4.935,0,0,1-1.185,3.407,4.233,4.233,0,0,1-3.3,1.37,4.015,4.015,0,0,1-3.157-1.315,4.789,4.789,0,0,1-1.174-3.313,4.887,4.887,0,0,1,1.212-3.424,4.2,4.2,0,0,1,3.265-1.332,4.119,4.119,0,0,1,3.187,1.313A4.75,4.75,0,0,1,2334.61,804.076Zm-2.076.065a4.069,4.069,0,0,0-.536-2.136,1.972,1.972,0,0,0-1.792-1.076,2,2,0,0,0-1.834,1.076,4.123,4.123,0,0,0-.536,2.172,4.069,4.069,0,0,0,.536,2.136,2.019,2.019,0,0,0,1.815,1.076,1.993,1.993,0,0,0,1.792-1.1A4.026,4.026,0,0,0,2332.533,804.141Z" transform="translate(-2187.162 -783.012)"/><path class="cls-2" d="M2344.29,808.649h-1.8l-0.149-1.036h-0.055a3.08,3.08,0,0,1-2.628,1.241,2.712,2.712,0,0,1-2.054-.815,2.555,2.555,0,0,1-.7-1.832,2.8,2.8,0,0,1,1.38-2.517,7.161,7.161,0,0,1,3.88-.851V802.67a1.612,1.612,0,0,0-1.868-1.777,4.184,4.184,0,0,0-2.346.666l-0.407-1.313a5.77,5.77,0,0,1,3.086-.777q3.527,0,3.531,3.722V806.5A14.052,14.052,0,0,0,2344.29,808.649Zm-2.076-3.092V804.17q-3.309-.057-3.309,1.813a1.355,1.355,0,0,0,.384,1.055,1.4,1.4,0,0,0,.977.351,2.02,2.02,0,0,0,1.223-.416A1.708,1.708,0,0,0,2342.213,805.557Z" transform="translate(-2187.162 -783.012)"/><path class="cls-2" d="M2355.655,808.649h-1.775l-0.094-1.445h-0.055a2.99,2.99,0,0,1-2.889,1.649,3.386,3.386,0,0,1-2.7-1.277,4.974,4.974,0,0,1-1.073-3.313,5.216,5.216,0,0,1,1.166-3.536,3.585,3.585,0,0,1,2.777-1.26,2.7,2.7,0,0,1,2.535,1.221h0.038v-5.164h2v10.7Q2355.584,807.539,2355.655,808.649Zm-2.073-3.794v-1.5a2.944,2.944,0,0,0-.055-0.63,2.278,2.278,0,0,0-.723-1.212,1.966,1.966,0,0,0-1.338-.49,2.052,2.052,0,0,0-1.76.889,3.811,3.811,0,0,0-.641,2.277,3.553,3.553,0,0,0,.615,2.166,2.059,2.059,0,0,0,1.748.887,1.927,1.927,0,0,0,1.58-.741A2.465,2.465,0,0,0,2353.582,804.855Z" transform="translate(-2187.162 -783.012)"/><path class="cls-2" d="M2372.761,804.076a4.935,4.935,0,0,1-1.185,3.407,4.227,4.227,0,0,1-3.3,1.37,4.026,4.026,0,0,1-3.157-1.315,4.789,4.789,0,0,1-1.174-3.313,4.887,4.887,0,0,1,1.212-3.424,4.2,4.2,0,0,1,3.269-1.332,4.11,4.11,0,0,1,3.183,1.313A4.75,4.75,0,0,1,2372.761,804.076Zm-2.073.065a4.069,4.069,0,0,0-.536-2.136,1.978,1.978,0,0,0-1.8-1.076,2.01,2.01,0,0,0-1.834,1.076,4.123,4.123,0,0,0-.536,2.172,4.069,4.069,0,0,0,.536,2.136,2.044,2.044,0,0,0,3.611-.019A4.061,4.061,0,0,0,2370.688,804.141Z" transform="translate(-2187.162 -783.012)"/><path class="cls-2" d="M2383.515,808.649h-2V803.5q0-2.382-1.815-2.382a1.8,1.8,0,0,0-1.443.655,2.313,2.313,0,0,0-.555,1.542v5.336h-2v-6.424q0-1.185-.071-2.575h1.756l0.094,1.407h0.055a2.919,2.919,0,0,1,1.036-1.086,3.387,3.387,0,0,1,1.815-.506,2.87,2.87,0,0,1,2.092.815,3.952,3.952,0,0,1,1.036,2.981v5.39Z" transform="translate(-2187.162 -783.012)"/><path class="cls-2" d="M2396.976,801.15h-2.2v4.37c0,1.111.391,1.666,1.166,1.666a3.523,3.523,0,0,0,.891-0.094l0.052,1.517a4.494,4.494,0,0,1-1.554.223,2.391,2.391,0,0,1-1.849-.721,3.529,3.529,0,0,1-.668-2.426V801.15H2391.5v-1.5h1.315V798l1.96-.592v2.239h2.2v1.5h0Z" transform="translate(-2187.162 -783.012)"/><path class="cls-2" d="M2407.565,808.649h-2v-5.115q0-2.419-1.811-2.42a1.909,1.909,0,0,0-1.909,1.4,2.513,2.513,0,0,0-.094.72v5.411h-2V795.524h2v5.422h0.038a3.023,3.023,0,0,1,2.7-1.479,2.787,2.787,0,0,1,2.057.815,4.1,4.1,0,0,1,1.017,3.017v5.35Z" transform="translate(-2187.162 -783.012)"/><path class="cls-2" d="M2418.487,803.725a4.83,4.83,0,0,1-.074.907h-6a2.623,2.623,0,0,0,.868,2.036,2.98,2.98,0,0,0,1.964.63,6.626,6.626,0,0,0,2.426-.426l0.313,1.389a7.533,7.533,0,0,1-3.019.555,4.361,4.361,0,0,1-3.285-1.231,4.535,4.535,0,0,1-1.193-3.3,5.149,5.149,0,0,1,1.111-3.388,3.825,3.825,0,0,1,3.145-1.443,3.346,3.346,0,0,1,2.941,1.443A4.8,4.8,0,0,1,2418.487,803.725Zm-1.909-.517a2.693,2.693,0,0,0-.387-1.536,1.747,1.747,0,0,0-1.592-.834,1.9,1.9,0,0,0-1.592.815,3.028,3.028,0,0,0-.594,1.555h4.164Z" transform="translate(-2187.162 -783.012)"/></svg>