<svg id="Layer_1" data-name="Layer 1" xmlns="http://www.w3.org/2000/svg" viewBox="0 0 194.056 34.06"><defs><style>.cls-1,.cls-2{fill:#fff;}.cls-2{fill-rule:evenodd;}</style></defs><title>logo</title><path class="cls-1" d="M4252.642,39.593a0.107,0.107,0,0,0-.03-0.035l-0.692-1.3a0.121,0.121,0,0,0-.108-0.063h-1.7a0.122,0.122,0,0,0-.1.058,0.129,0.129,0,0,0,0,.121l4.368,8.08a0.122,0.122,0,0,0,.108.065,0.126,0.126,0,0,0,.107-0.065l0.827-1.551a0.118,0.118,0,0,0,0-.116Z" transform="translate(-4207.187 -31.885)"/><path class="cls-1" d="M4265.823,38.194h-1.6a0.123,0.123,0,0,0-.107.063l-6.2,11.58a0.114,0.114,0,0,0-.029.036l-0.8,1.494a0.123,0.123,0,0,0,0,.108l0.008,8.083a0.122,0.122,0,0,0,.121.122h1.528a0.123,0.123,0,0,0,.122-0.122V51.381l7.062-13.008a0.125,0.125,0,0,0,0-.121A0.127,0.127,0,0,0,4265.823,38.194Z" transform="translate(-4207.187 -31.885)"/><path class="cls-1" d="M4277.205,37.86a8.929,8.929,0,0,0-7.057,2.952,11.882,11.882,0,0,0-2.584,8.066,12.115,12.115,0,0,0,2.557,8.111,9.851,9.851,0,0,0,14.12,0,12.042,12.042,0,0,0,2.561-8.081,12.062,12.062,0,0,0-2.545-8.08A8.831,8.831,0,0,0,4277.205,37.86Zm-0.029,20.475a7.031,7.031,0,0,1-5.748-2.447c-1.333-1.633-2.012-3.982-2.012-6.98s0.685-5.323,2.032-6.94a8.056,8.056,0,0,1,11.5-.025c1.328,1.608,2,3.951,2,6.965s-0.673,5.378-2,7A7.059,7.059,0,0,1,4277.176,58.335Z" transform="translate(-4207.187 -31.885)"/><path class="cls-1" d="M4307.878,38.194h-1.483a0.121,0.121,0,0,0-.121.121v13.9a5.692,5.692,0,0,1-6.257,6.211,5.8,5.8,0,0,1-6.388-6.359V38.315a0.122,0.122,0,0,0-.12-0.121h-1.5a0.122,0.122,0,0,0-.121.121V52a7.3,7.3,0,0,0,7.953,7.966,8.275,8.275,0,0,0,6-2.1A7.76,7.76,0,0,0,4308,52.062V38.315A0.122,0.122,0,0,0,4307.878,38.194Z" transform="translate(-4207.187 -31.885)"/><path class="cls-1" d="M4323.363,49.667A18.177,18.177,0,0,0,4319.606,48a19.579,19.579,0,0,1-3.319-1.437,3.3,3.3,0,0,1-1.773-3.189,3.46,3.46,0,0,1,1.345-2.867,5.832,5.832,0,0,1,3.677-1.066,12.98,12.98,0,0,1,5.008,1.1,0.123,0.123,0,0,0,.16-0.066l0.539-1.281a0.12,0.12,0,0,0-.066-0.159,14.239,14.239,0,0,0-5.673-1.141,7.561,7.561,0,0,0-4.88,1.531,5.3,5.3,0,0,0-.633,7.529,11.753,11.753,0,0,0,4.545,2.455,20.028,20.028,0,0,1,3.349,1.4,4.568,4.568,0,0,1,1.615,1.4,3.547,3.547,0,0,1,.487,1.933,3.7,3.7,0,0,1-1.486,3.047,6.431,6.431,0,0,1-4.068,1.176,15.051,15.051,0,0,1-5.813-.964,0.114,0.114,0,0,0-.113.01,0.122,0.122,0,0,0-.056.1v1.482a0.124,0.124,0,0,0,.075.112,16.525,16.525,0,0,0,6.019.864,8.246,8.246,0,0,0,5.268-1.579,5.23,5.23,0,0,0,2.005-4.309,5.163,5.163,0,0,0-.588-2.537A5.5,5.5,0,0,0,4323.363,49.667Z" transform="translate(-4207.187 -31.885)"/><path class="cls-1" d="M123.392,6.308h1.483a0.123,0.123,0,0,1,.123.123V27.962a0.123,0.123,0,0,1-.123.123h-1.483a0.121,0.121,0,0,1-.121-0.121V6.43A0.121,0.121,0,0,1,123.392,6.308Z"/><path class="cls-1" d="M4347.718,37.89a10.58,10.58,0,0,0-5.415,1.36,9.065,9.065,0,0,0-3.577,3.866,12.831,12.831,0,0,0-1.242,5.762c0,3.477.875,6.222,2.6,8.158a9.1,9.1,0,0,0,7.143,2.934,16.225,16.225,0,0,0,5.295-.746,0.121,0.121,0,0,0,.081-0.116V57.8a0.117,0.117,0,0,0-.049-0.1,0.12,0.12,0,0,0-.107-0.019,16.653,16.653,0,0,1-4.874.678,7.653,7.653,0,0,1-6.1-2.47,10.442,10.442,0,0,1-2.131-6.984,10.024,10.024,0,0,1,2.263-6.921,7.933,7.933,0,0,1,6.2-2.517,10.711,10.711,0,0,1,4.828,1.149,0.137,0.137,0,0,0,.1,0,0.126,0.126,0,0,0,.071-0.065l0.6-1.335a0.124,0.124,0,0,0-.06-0.161A13.053,13.053,0,0,0,4347.718,37.89Z" transform="translate(-4207.187 -31.885)"/><path class="cls-1" d="M150.723,6.308h1.484a0.121,0.121,0,0,1,.121.121V27.673a0.122,0.122,0,0,1-.122.122h-1.481a0.123,0.123,0,0,1-.123-0.123V6.43A0.121,0.121,0,0,1,150.723,6.308Z"/><path class="cls-1" d="M4401.122,38.194h-1.439a0.122,0.122,0,0,0-.122.121V52.18c0,1.475.039,3.047,0.116,4.673l-12.416-18.6a0.122,0.122,0,0,0-.1-0.054h-1.481a0.121,0.121,0,0,0-.122.121V59.558a0.121,0.121,0,0,0,.122.122h1.423a0.123,0.123,0,0,0,.123-0.122V45.783c0-1.083-.053-2.667-0.165-4.836l12.465,18.68a0.126,0.126,0,0,0,.1.053h1.5a0.123,0.123,0,0,0,.121-0.122V38.315A0.122,0.122,0,0,0,4401.122,38.194Z" transform="translate(-4207.187 -31.885)"/><path class="cls-1" d="M4373.478,42.943h1.446a0.122,0.122,0,0,0,.114-0.167l-1.839-4.592a0.121,0.121,0,0,0-.111-0.076h-0.946a0.124,0.124,0,0,0-.114.076l-8.546,21.329a0.124,0.124,0,0,0,.013.114,0.122,0.122,0,0,0,.1.053h1.641a0.124,0.124,0,0,0,.114-0.078l7.177-18.464a0.123,0.123,0,0,0,.013-0.02l0.071-.189,0.067,0.175v0l0,0.013,0.007,0.016,0.672,1.731A0.121,0.121,0,0,0,4373.478,42.943Z" transform="translate(-4207.187 -31.885)"/><path class="cls-1" d="M4378.2,50.675a0.121,0.121,0,0,0-.113-0.075h-4.29a0.125,0.125,0,0,0-.115.076l-0.522,1.343a0.125,0.125,0,0,0,.115.166h3.474l2.921,7.419a0.118,0.118,0,0,0,.113.076h1.844a0.122,0.122,0,0,0,.113-0.167Z" transform="translate(-4207.187 -31.885)"/><path class="cls-2" d="M4224.206,31.885a17.011,17.011,0,0,1,12.7,5.674,20.533,20.533,0,0,0-11.414-3.9,1.043,1.043,0,0,0-.024,2.087c6.94,0.1,14.924,4.968,15.781,12.32a19.625,19.625,0,0,0-6.9-7.846,1.045,1.045,0,0,0-1.127,1.76c4.253,2.746,8.445,8.626,6.616,13.88a17.071,17.071,0,0,0-.815-4.1,1.043,1.043,0,1,0-1.978.662c1.238,3.722,1.274,6.774-1.769,9.576a12.668,12.668,0,0,0-.237-10.825,11.17,11.17,0,0,0-1.583-2.322,1.045,1.045,0,1,0-1.561,1.392,9.084,9.084,0,0,1,1.289,1.888c2.434,4.744.788,11.377-4.477,13.35a8.319,8.319,0,0,0,.019-1.751,7.776,7.776,0,0,0,3.943-8.75c-0.8-3.689-4.283-6.455-8.126-5.458l-0.784-2.4c1.773-1.671,3.335-3.385,3.552-6.11,0.142-1.839-.784-3.894-2.832-4.054a3.563,3.563,0,0,0-3.461,2.2c-0.939,2.125-.3,5.167.35,7.333-4.385,4.146-5.322,8.293-4.411,11.563a8.682,8.682,0,0,0,1.846,3.4,9.132,9.132,0,0,0,2.986,2.241,8.254,8.254,0,0,0,4.886.706,4.229,4.229,0,0,1-.1,1.139,1.051,1.051,0,0,1-.172.4c-5.748.163-9.262-2.087-10.734-7.73a1.043,1.043,0,1,0-2.028.491,13.649,13.649,0,0,0,2.718,5.468c-5.033-3.228-5.458-9.62-3.711-14.845a1.043,1.043,0,1,0-1.978-.663,19.437,19.437,0,0,0-.935,7.366,19.85,19.85,0,0,0,.325,2.524c-2.941-5.6-1.4-11.745,2.346-16.52a1.045,1.045,0,1,0-1.642-1.293,21.138,21.138,0,0,0-3.38,6.346c-0.069.2-.133,0.411-0.2,0.618a17.08,17.08,0,0,1,17.02-15.814h0Zm-6.5,5.712a14.268,14.268,0,0,1,5.211-1.749,1.044,1.044,0,0,0-.189-2.08,16.409,16.409,0,0,0-6.012,1.986,1.046,1.046,0,0,0,.989,1.843h0Zm-3.615,2.583a15.854,15.854,0,0,1,1.49-1.241,1.045,1.045,0,0,0-1.234-1.688,18.171,18.171,0,0,0-1.685,1.407,1.044,1.044,0,1,0,1.429,1.522h0Zm14.611-.175a14.522,14.522,0,0,1,2.2.737,1.045,1.045,0,0,0,.817-1.923,16.518,16.518,0,0,0-2.517-.844,1.045,1.045,0,0,0-.5,2.03h0Zm-15.082,7.02a14.577,14.577,0,0,1,2.44-3.411,13.291,13.291,0,0,1,3.212-2.449,1.048,1.048,0,0,0-1-1.843,15.43,15.43,0,0,0-3.715,2.838l0,0a16.68,16.68,0,0,0-2.791,3.895,1.046,1.046,0,1,0,1.855.965h0Zm14.893-3.156a12.742,12.742,0,0,1,7.536,6.261,1.043,1.043,0,1,0,1.831-1,14.789,14.789,0,0,0-8.8-7.276,1.045,1.045,0,0,0-.563,2.014h0Zm-1.467,3.465a7.411,7.411,0,0,1,2.924,1.231,1.043,1.043,0,0,0,1.217-1.7,9.488,9.488,0,0,0-3.8-1.6,1.046,1.046,0,0,0-.343,2.064h0Zm-11.729,8.481a13.031,13.031,0,0,1,.978-5.846,11.027,11.027,0,0,1,3.351-4.43,1.044,1.044,0,0,0-1.276-1.654,13.13,13.13,0,0,0-4,5.264,15.117,15.117,0,0,0-1.141,6.779,1.044,1.044,0,1,0,2.084-.114h0Zm11.914-.148a1.042,1.042,0,1,1,2.067-.263,4.889,4.889,0,0,1-.8,3.536,4.445,4.445,0,0,1-.646.736c0.187,0.579.363,1.208,0.509,1.848a5.768,5.768,0,0,0,2.257-6.108c-0.536-2.482-2.776-4.5-5.432-3.905l1.872,5.734a2.987,2.987,0,0,0,.169-1.579h0Zm-1.258,4.988a4.894,4.894,0,0,1-5.668-4.242,6.007,6.007,0,0,1,1.769-5.507,5.908,5.908,0,0,1,.564-0.48l-0.559-1.71c-3.11,3.259-3.79,6.36-3.115,8.781a6.739,6.739,0,0,0,7.439,4.824c-0.118-.565-0.266-1.131-0.429-1.666h0Zm-0.65-2.007-1.978-6.056a3.947,3.947,0,0,0-.971,3.511,2.843,2.843,0,0,0,2.95,2.545h0Zm-2.246-13.793a6.5,6.5,0,0,0,2.145-4.012,3.093,3.093,0,0,0-.012-0.625c-0.218-1.62-1.739-1.453-2.285-.216a5.832,5.832,0,0,0-.2,3.063A16.328,16.328,0,0,0,4223.079,44.855Z" transform="translate(-4207.187 -31.885)"/></svg>